<svg width="154" height="154" viewBox="0 0 154 154" fill="none" xmlns="http://www.w3.org/2000/svg">
<path d="M88.0613 32.9277C87.9769 30.2659 87.2947 33.1816 87.678 33.9663C87.6915 33.9901 87.7096 34.011 87.7312 34.0278C87.7528 34.0445 87.7775 34.0569 87.8038 34.064C87.8302 34.0712 87.8577 34.073 87.8848 34.0694C87.9119 34.0659 87.938 34.0569 87.9616 34.0432C87.9926 34.0236 88.0188 33.9973 88.0383 33.9663C88.1033 33.6232 88.1033 33.2708 88.0383 32.9277H88.0613ZM80.8097 43.7595C80.2961 43.7595 74.7616 43.4748 74.7923 43.898C74.4473 43.7979 74.7923 46.2828 74.7923 46.5751C74.7923 46.8675 75.3825 46.8213 75.5588 46.8367C77.0919 46.9521 81.3386 46.9213 81.6912 46.9213C82.0438 46.9213 81.8369 43.998 81.8292 43.9903C81.8215 43.6672 80.9937 43.7672 80.8097 43.7595ZM81.4766 46.552C80.1658 46.552 76.425 46.4597 75.1832 46.552C75.0912 45.7058 74.9993 44.8596 74.9149 44.0133L81.4996 44.1441C81.4459 44.9442 81.4766 45.752 81.4766 46.552ZM71.1818 47.5829C71.2112 47.5796 71.2386 47.5664 71.2595 47.5454C71.2803 47.5244 71.2935 47.497 71.2968 47.4675V45.5058C71.2968 45.2135 70.8292 45.1596 70.8445 45.4596C70.8445 46.1366 70.9289 46.8059 70.9825 47.4752C70.9831 47.4983 70.9897 47.5208 71.0018 47.5404C71.0138 47.5601 71.0308 47.5762 71.051 47.5871C71.0713 47.5981 71.094 47.6034 71.117 47.6027C71.14 47.602 71.1623 47.5951 71.1818 47.5829ZM87.77 42.9132C87.7402 42.9174 87.7123 42.9307 87.6904 42.9514C87.6684 42.9721 87.6534 42.999 87.6473 43.0286C87.6473 43.3517 87.4404 45.1981 87.8236 45.2365C88.2989 45.2365 87.9769 43.4441 87.9309 43.0133C87.9219 42.9791 87.9002 42.9498 87.8702 42.9312C87.8403 42.9126 87.8045 42.9062 87.77 42.9132ZM87.9769 47.1906C87.9003 46.6597 87.632 46.6982 87.6013 47.4214V48.283C87.6013 48.8369 88.2606 49.2754 87.9769 47.1906ZM87.8083 50.6447C87.3944 50.6832 87.7163 52.5987 87.77 52.9526C87.77 53.0834 88.0076 53.1142 88.0153 52.9526C88.0153 52.2603 88.0153 51.5679 88.0613 50.8755C88.0627 50.8428 88.057 50.8102 88.0444 50.7799C88.0319 50.7497 88.0129 50.7226 87.9887 50.7006C87.9646 50.6786 87.9359 50.6621 87.9047 50.6525C87.8735 50.6428 87.8406 50.6402 87.8083 50.6447ZM88.0153 35.6895C88.0153 35.528 87.7316 35.551 87.701 35.6895C87.6703 35.828 87.4404 38.3051 87.9769 37.6897C88.0922 37.0254 88.0922 36.3461 87.9769 35.6818L88.0153 35.6895ZM87.5937 39.813V41.3516C87.5937 41.6593 88.0766 41.6131 88.0613 41.3516C88.0613 40.8438 88.0613 40.3361 87.9846 39.813C87.9386 38.9975 87.609 38.9513 87.5937 39.813ZM87.701 54.8451C87.5858 55.512 87.5858 56.1938 87.701 56.8607C87.701 57.0299 87.9846 56.9992 88.0153 56.8607C88.0459 56.7222 88.2376 54.2297 87.701 54.8451ZM108.229 33.5893C108.664 33.6606 109.065 33.8711 109.371 34.1894C109.54 34.3663 109.755 34.0586 109.126 33.5508C108.084 32.7277 107.647 33.4816 108.229 33.5893ZM107.67 36.5665C108.352 36.3742 107.785 34.951 107.578 36.0511C107.555 36.1434 107.486 36.6204 107.67 36.5665ZM108.191 41.4054C110.491 41.4516 109.808 37.8666 109.371 38.6359C108.36 40.3669 106.642 39.9976 106.52 40.1745C106.397 40.3515 107.11 41.39 108.191 41.4054ZM109.486 39.036C110 41.1592 107.723 41.8131 106.819 40.3669C107.339 40.3909 107.858 40.2813 108.324 40.0484C108.791 39.8155 109.191 39.4671 109.486 39.036ZM87.9233 30.3582C87.9534 30.3442 87.9797 30.3231 87.9999 30.2967C88.1265 29.6257 88.1265 28.9368 87.9999 28.2657C87.9999 28.1427 87.7776 28.1042 87.7393 28.2657C87.6195 28.9361 87.6014 29.6209 87.6857 30.2967C87.7108 30.3345 87.7489 30.3617 87.7927 30.3731C87.8366 30.3844 87.8831 30.3791 87.9233 30.3582ZM104.772 38.3744C104.925 39.0667 106.734 38.3128 105.148 38.2359C105.247 37.2416 105.456 36.2613 105.769 35.3125C105.891 34.8971 105.224 35.0818 104.833 37.8435C104.782 38.0155 104.761 38.1952 104.772 38.3744ZM70.8675 49.4985C70.8838 50.1785 70.9426 50.8568 71.0439 51.5294C71.0439 51.5621 71.0568 51.5934 71.0798 51.6165C71.1028 51.6395 71.134 51.6525 71.1665 51.6525C71.199 51.6525 71.2302 51.6395 71.2532 51.6165C71.2762 51.5934 71.2891 51.5621 71.2891 51.5294C71.5498 48.106 70.8675 49.4523 70.8675 49.4985ZM103.707 35.1125C103.431 35.4818 103.484 36.1511 103.791 35.8818C104.097 35.6126 103.898 34.851 103.707 35.1125ZM70.9135 57.53C70.5379 58.3608 71.3811 61.3765 71.3428 58.0608C71.3351 57.53 71.0898 57.153 70.9135 57.53ZM70.9289 55.4606C70.9289 55.6221 71.2202 55.599 71.2508 55.4606C71.2815 55.3221 71.5038 52.8449 70.9749 53.4527C70.8444 54.1169 70.8289 54.7987 70.9289 55.4682V55.4606Z" fill="black"/>
<path d="M100.916 29.5966C101.416 30.0517 101.982 30.4278 102.595 30.7121C101.629 33.9201 99.5748 44.2211 105.01 44.8365C105.01 45.3289 104.964 45.8212 104.941 46.3213C103.262 46.8426 101.649 47.5577 100.134 48.4522C99.5135 49.4677 98.8926 50.4909 98.31 51.5294C97.5425 52.9623 96.8541 54.4364 96.248 55.9452C97.3257 56.3407 98.3307 56.9126 99.2222 57.6377C100.142 58.3301 98.5017 59.384 97.8424 60.2225C99.7086 63.6582 102.148 66.7469 105.056 69.3541C105.232 68.2925 105.439 67.3847 105.523 67.0462C103.76 63.969 101.461 52.4295 101.729 48.1214C102.189 47.8906 102.649 47.6829 103.109 47.4906C103.109 48.3676 103.944 50.4832 104.833 50.6986C104.933 51.0063 105.332 50.3909 105.6 50.1216C105.746 50.6524 105.945 51.1986 106.037 51.5987C106.674 51.4618 107.337 51.5126 107.946 51.7448C108.268 51.2986 108.812 50.6601 109.08 50.3601C109.21 50.537 109.425 50.914 109.655 50.8755C111.487 50.5293 114.254 48.7753 115.197 47.0675C115.764 47.2136 116.316 47.3752 116.868 47.5598C111.863 53.068 106.903 62.4766 105.615 69.6696C108.927 67.2693 114.377 63.269 116.96 60.7995C114.96 57.6685 113.288 57.8992 117.305 57.1069C118.072 56.9607 118.8 56.8145 119.551 56.7068C119.352 53.7014 119.015 50.7114 118.539 47.7368C116.828 46.9987 115.021 46.5042 113.173 46.2674C113.127 45.075 113.173 43.8749 113.173 42.6825C113.173 42.6825 118.639 36.1357 117.995 31.8045C117.742 30.0736 116.393 29.9428 114.99 30.3967C116.071 29.3582 117.366 29.5197 117.29 28.8581C117.175 27.8811 114.714 28.4658 113.917 29.8967C111.656 25.2116 106.252 23.8807 109.226 27.4041C107.271 26.1117 105.086 24.9808 102.679 24.9808C99.0843 24.927 98.655 27.5349 100.916 29.5966ZM104.948 50.3678C104.489 49.9994 104.108 49.5431 103.826 49.0254C103.545 48.5076 103.368 47.9388 103.308 47.3521C103.868 47.1213 104.427 46.9136 105.002 46.7213C105.663 47.3206 106.353 47.8855 107.072 48.4138C106.232 48.9146 105.509 49.5885 104.948 50.3909V50.3678ZM113.189 46.5828C113.741 46.6982 114.285 46.8136 114.829 46.9521C113.487 48.5991 111.721 49.8467 109.724 50.5601C109.151 49.7949 108.493 49.098 107.762 48.483C109.69 48.2825 111.547 47.6403 113.189 46.6059V46.5828ZM102.856 30.8275C104.573 31.5507 109.862 32.32 111.771 32.243C110.651 35.0895 111.947 37.8666 112.744 36.5511C112.966 36.1742 113.35 35.5818 113.971 36.0742C114.331 36.3665 114.469 37.0743 113.84 38.1974C113.176 39.3037 112.836 40.5756 112.859 41.867C112.758 43.3649 112.738 44.8673 112.798 46.3674C111.155 47.2925 109.362 47.9176 107.501 48.2137L105.201 46.5059C105.278 45.5289 105.546 44.4288 105.201 44.4288C104.764 44.4027 104.337 44.2827 103.949 44.077C103.562 43.8713 103.223 43.5847 102.955 43.2364C100.817 40.6592 102.081 33.874 102.856 30.8275Z" fill="black"/>
<path d="M103.323 34.0278C103.508 33.8829 103.72 33.7774 103.947 33.7178C104.174 33.6583 104.41 33.646 104.642 33.6816C104.675 33.6776 104.706 33.6628 104.73 33.6396C104.754 33.6164 104.77 33.5859 104.775 33.5529C104.78 33.5198 104.774 33.486 104.759 33.4565C104.743 33.4269 104.718 33.4034 104.688 33.3893C103.308 33.0662 102.871 34.4048 103.323 34.0278ZM106.075 51.9987C105.462 55.0349 104.851 58.0762 104.243 61.1226C104.595 62.807 105.109 64.4532 105.776 66.0384C106.38 64.2082 107.079 62.4107 107.869 60.6533C107.685 58.5147 107.578 53.2911 107.662 52.3141C107.189 52.0196 106.625 51.9075 106.075 51.9987ZM50.5923 32.92C51.2362 32.8354 50.1094 29.0735 50.3087 32.3507C50.3317 32.5508 50.3087 32.9585 50.5923 32.92ZM50.3163 64.746C50.3163 64.9768 50.255 65.7615 50.623 65.7153C51.2669 65.6307 50.1937 62.1612 50.3163 64.746ZM50.7073 41.5285C50.7 41.4983 50.6829 41.4714 50.6585 41.4521C50.6342 41.4329 50.6041 41.4224 50.5731 41.4224C50.5422 41.4224 50.5121 41.4329 50.4878 41.4521C50.4634 41.4714 50.4463 41.4983 50.439 41.5285C50.3176 42.1963 50.3021 42.8791 50.393 43.5518C50.4145 43.5955 50.4523 43.629 50.4983 43.6448C50.5442 43.6607 50.5946 43.6577 50.6383 43.6364C50.6671 43.6203 50.693 43.5995 50.715 43.5748C50.8371 42.898 50.8345 42.2044 50.7073 41.5285ZM50.3393 69.2234C50.3853 69.5388 50.8223 69.5157 50.8069 68.9464C50.738 67.1462 50.3317 67.1155 50.324 68.0079C50.2934 68.4124 50.2934 68.8188 50.324 69.2234H50.3393ZM50.3163 46.2135C50.2843 46.5489 50.3102 46.8872 50.393 47.2136C50.4231 47.2608 50.4697 47.2949 50.5237 47.3092C50.5777 47.3234 50.635 47.3168 50.6843 47.2906L50.7609 47.2136C50.7609 47.1367 50.7609 44.7134 50.416 45.2135C50.2397 45.4519 50.3163 45.9289 50.3163 46.2135ZM50.6536 56.2991C50.6509 56.2808 50.6444 56.2632 50.6348 56.2475C50.6251 56.2317 50.6124 56.218 50.5974 56.2073C50.5824 56.1965 50.5654 56.1889 50.5474 56.1848C50.5294 56.1808 50.5108 56.1804 50.4927 56.1837C50.4633 56.187 50.4359 56.2002 50.415 56.2212C50.3941 56.2422 50.381 56.2696 50.3777 56.2991C50.3777 56.6222 50.163 58.4685 50.5463 58.507C51.0216 58.5685 50.6996 56.7376 50.6536 56.2991ZM50.6306 52.5757C50.6306 52.543 50.6177 52.5117 50.5947 52.4886C50.5717 52.4656 50.5405 52.4526 50.508 52.4526C50.4755 52.4526 50.4443 52.4656 50.4213 52.4886C50.3983 52.5117 50.3853 52.543 50.3853 52.5757C50.1247 56.0068 50.8069 54.6528 50.8069 54.6066C50.791 53.9266 50.7322 53.2482 50.6306 52.5757ZM50.7303 48.9676C50.7303 48.7984 50.4467 48.8292 50.416 48.9676C50.3853 49.1061 50.163 51.5833 50.692 50.9678C50.82 50.3032 50.833 49.6213 50.7303 48.9523V48.9676ZM50.3317 60.6918V61.5303C50.3317 62.0842 50.9909 62.5227 50.7073 60.4379C50.6306 59.9302 50.3623 59.9917 50.3317 60.6918ZM94.2167 91.6793C93.0466 91.4238 91.906 91.0474 90.8132 90.5561C90.8668 91.7716 90.9282 92.9486 90.9895 94.1179C93.0132 94.0641 93.9944 93.7871 94.2167 91.6946V91.6793ZM122.817 96.3258L123.016 92.7947C121.215 92.9627 119.405 93.0346 117.596 93.0101C118.34 95.9643 119.873 96.2489 122.817 96.3258ZM126.143 144.376C125.599 133.56 125.316 104.303 125.653 92.4793C124.963 92.587 124.212 92.6793 123.43 92.7563C122.901 110.45 122.663 126.682 123.775 144.584C124.57 144.623 125.367 144.553 126.143 144.376ZM71.1205 71.839L36.9784 71.3005C35.5986 71.3005 34.1958 71.2158 32.8083 71.3005C32.6474 71.3005 32.6704 71.5543 32.8083 71.5697C34.5024 71.7313 38.3812 71.739 40.2899 71.7774L71.0822 72.3006C71.3811 72.3006 71.4271 71.839 71.1205 71.839Z" fill="black"/>
<path d="M117.474 144.492C119.388 144.656 121.311 144.692 123.231 144.6C122.464 128.721 122.173 112.835 122.794 96.9028C121.123 96.9028 118.363 96.4874 117.543 94.7719C117.254 94.2233 117.119 93.6065 117.152 92.9871C112.208 92.8563 107.562 91.9178 106.32 89.5945C106.046 90.1346 105.605 90.5716 105.063 90.8407C105.063 91.7485 104.925 96.072 105.293 96.7567C105.577 97.3029 106.205 97.2259 106.719 97.3183C106.77 97.3326 106.813 97.3666 106.839 97.4127C106.865 97.4589 106.871 97.5134 106.857 97.5644C106.847 97.5971 106.829 97.6269 106.805 97.651C106.781 97.6752 106.752 97.693 106.719 97.7029C105.293 97.9337 104.657 97.0952 104.58 95.7643C104.454 94.2026 104.454 92.6332 104.58 91.0715C102.388 92.1101 98.494 92.5255 94.6153 91.7639C94.6153 94.1334 93.0132 94.7334 90.9742 94.7873C92.2773 118.274 95.4048 132.737 99.3525 144.561C99.4829 144.938 107.585 144.853 107.57 144.492C106.972 131.244 106.65 119.62 108.099 108.027L107.332 101.873C105.263 100.98 105.646 100.334 105.991 100.557L107.248 101.326C107.532 101.457 107.769 101.442 107.754 101.803C109.831 116.074 113.166 129.698 117.474 144.492ZM43.4021 66.0539C41.2036 65.969 39.0019 66.0204 36.8097 66.2077C36.3191 66.2616 36.1965 66.3154 36.1965 66.8078C36.1965 67.5001 36.1965 68.9387 36.5108 68.7541C36.5568 68.9387 41.708 68.9003 43.1338 68.8233C43.5247 68.8233 43.6014 68.5695 43.3791 68.4772C43.5554 68.4541 43.6167 66.1462 43.4021 66.0539ZM36.5644 68.5925C36.6027 67.9033 36.6027 67.2124 36.5644 66.5231C38.6878 66.4693 41.0487 66.5231 43.1108 66.377C43.1108 66.6616 42.9958 68.3002 43.1951 68.4541C42.3749 68.4002 36.6947 68.531 36.5644 68.5925Z" fill="black"/>
<path d="M118.897 48.0824C119.434 50.6513 119.787 53.2552 119.955 55.8743C120.085 57.7416 120.361 57.2652 117.28 57.8185C116.683 57.926 116.092 58.0644 115.495 58.1412C115.824 58.5408 118.085 61.215 117.165 61.3072C115.924 62.967 107.532 69.0914 105.348 70.3132C105.233 71.0817 105.149 71.7963 105.103 72.5494C104.997 72.5537 104.894 72.5798 104.799 72.6261C104.704 72.6724 104.619 72.7378 104.551 72.8183C104.559 71.9172 104.635 71.0181 104.781 70.1288C101.179 67.5699 97.7531 61.799 97.2013 60.3543C96.9407 59.6781 98.3125 58.7483 98.734 58.3333C97.8144 57.5649 95.454 56.5506 95.5689 56.174C96.393 53.7185 97.5125 51.3728 98.9026 49.1889C98.0367 49.7196 97.1881 50.2783 96.3583 50.8641C96.0364 38.4923 96.0441 25.7363 95.3007 13.4183H97.2856C97.6305 13.4183 97.6075 12.5269 97.2856 12.5269H95.2164C90.4725 11.6816 85.7287 10.844 81.0078 9.8604C73.6582 8.32353 66.1784 6.44855 58.8365 5.07305V4.15861C58.8365 3.95881 58.0242 3.93576 58.0242 4.15861V5.01157C47.5938 7.73183 37.0332 10.0064 26.5338 12.3348C25.191 12.5597 23.8608 12.8547 22.5487 13.2185L19.9966 13.2723C19.7131 13.2723 19.7208 14.0407 19.9966 14.0407H22.6483C22.2651 34.6194 22.2268 55.1827 22.0659 75.7461C22.0659 76.1918 21.8666 79.6805 22.2575 79.6805C26.6718 79.7727 57.71 79.6805 57.71 79.6805C57.71 99.9979 57.6844 120.318 57.6333 140.64C51.3874 143.952 42.804 148.571 41.3709 149.424C41.1103 149.493 18.9697 149.424 16.1265 149.493C15.9578 149.493 15.9578 149.816 16.1265 149.816C19.8434 149.946 130.416 150 130.416 150C130.723 150 130.784 149.485 130.477 149.485H125.404C125.233 148.008 124.938 146.548 124.523 145.12C122.777 145.297 121.018 145.297 119.273 145.12C118.054 145.558 113.242 147.426 113.05 149.462H107.586C107.455 148.037 107.183 146.629 106.773 145.259C104.894 145.695 102.946 145.739 101.048 145.389C100.228 145.681 95.5536 147.38 95.2087 149.477H76.149C75.6891 149.016 59.2504 140.971 58.9745 140.879V79.7035H89.6755C89.3996 83.5457 89.2846 89.5702 89.4609 89.6471C97.3622 93.0205 104.965 91.6681 105.93 89.1245C104.076 86.5656 104.221 79.7804 104.237 78.5048C104.384 78.7405 104.556 78.9595 104.75 79.1579C104.65 81.4632 104.65 88.5789 107.747 90.6307C111.027 92.813 121.725 93.0205 126.362 91.8448C126.408 89.6471 126.301 86.8039 126.201 85.3208C122.124 84.9957 118.078 84.3534 114.1 83.3997C113.678 83.3075 110.774 82.7696 110.728 82.4238C110.682 82.078 110.628 81.6092 110.598 81.1943L109.065 80.8485C109.058 78.8945 109.254 76.9451 109.647 75.0314L110.827 74.9853C110.889 74.5857 110.827 73.8557 111.295 73.8557C112.424 73.4823 113.576 73.1845 114.744 72.9643C116.7 72.5494 118.652 72.1524 120.599 71.7733C120.095 69.7039 119.761 67.5963 119.602 65.4721C119.602 65.2262 119.955 65.1647 119.978 65.4106C120.229 67.5252 120.623 69.6202 121.158 71.681C123.394 71.2128 125.657 70.8817 127.933 70.6898C127.972 70.6982 128.008 70.7199 128.033 70.7514C128.059 70.7829 128.073 70.8222 128.073 70.8627C128.073 70.9032 128.059 70.9424 128.033 70.9739C128.008 71.0054 127.972 71.0272 127.933 71.0356C122.461 71.4736 116.821 72.9643 111.456 74.2399C110.988 76.8634 110.851 79.5356 111.05 82.1932C114.466 83.0928 117.931 83.7983 121.426 84.3064C127.128 85.0057 135.566 86.3966 136.754 78.5048C138.639 66.74 129.404 52.8621 118.897 48.0824ZM57.6333 149.439H43.5704C48.2376 146.88 52.9584 144.583 57.6717 141.924L57.6333 149.439ZM92.6644 12.5115L58.9438 12.8573C58.9438 10.3599 58.8902 8.24669 58.8442 5.7339C69.7651 8.24669 81.5826 10.552 92.6644 12.5115ZM58.0012 5.78769C57.9552 8.27742 57.9092 10.3983 57.8786 12.8727C46.5592 12.9802 35.9143 13.011 24.5949 13.2185C35.9756 10.99 58.0012 5.78769 58.0012 5.78769ZM73.9111 149.485H58.8979V142.001C63.3505 144.559 69.1903 147.31 73.9111 149.447V149.485ZM94.7795 58.2718C91.714 64.6652 90.2656 72.1652 89.7061 79.2425C67.4813 79.2425 44.8272 78.7045 22.6636 79.1887C22.7939 77.5212 22.5487 74.7702 22.564 72.9797C22.7173 53.3231 23.3687 33.7895 23.2921 14.1022C32.3966 14.1022 94.6416 13.4413 94.6416 13.4413C95.0631 25.0908 95.8831 50.6566 95.9368 51.2099C91.5836 54.3312 87.6682 58.0246 84.2955 62.1909C85.7449 62.4543 87.1759 62.8111 88.5796 63.259C88.6265 63.2794 88.6638 63.3171 88.6838 63.3643C88.7037 63.4115 88.7049 63.4646 88.6869 63.5126C88.6697 63.5553 88.6379 63.5905 88.5971 63.6116C88.5563 63.6328 88.5093 63.6385 88.4646 63.6278C85.5601 62.9362 74.9304 60.677 70.0716 61.2073C69.9567 61.2073 69.9796 61.4071 70.018 61.6453C69.5642 61.5522 69.0987 61.5315 68.6385 61.5838C67.2973 59.7703 65.8795 57.7416 63.5574 59.2785C62.5228 57.3267 53.6482 40.3058 53.3033 40.2751C52.8741 39.645 52.376 40.2751 52.6596 40.8053L62.5841 60.8615C61.8177 61.5223 61.7028 62.5443 62.3542 62.7595C61.9557 63.5894 62.5075 64.573 62.7834 64.4578C62.4845 65.9946 64.7606 67.4162 65.7799 67.2241C65.9179 67.4854 66.5463 68.8301 66.8145 68.8148C66.9621 68.9308 67.1453 68.992 67.3328 68.9881C67.5204 68.9841 67.7008 68.9152 67.8434 68.793C67.986 68.6708 68.082 68.5029 68.1152 68.3178C68.1484 68.1327 68.1167 67.9417 68.0254 67.7774L68.6691 68.1232C68.4852 68.4306 68.3779 68.5919 68.4316 68.6534C71.5967 72.3573 79.4597 76.9448 82.4716 77.4136C84.9086 77.7901 87.7749 77.867 89.208 77.4597C89.8671 71.1355 91.3768 63.7047 94.4194 58.049C94.4308 58.0252 94.4468 58.0039 94.4666 57.9863C94.4863 57.9687 94.5093 57.9553 94.5342 57.9467C94.5592 57.9381 94.5856 57.9346 94.6119 57.9363C94.6382 57.9381 94.664 57.945 94.6876 57.9568C94.7123 57.9682 94.7345 57.9846 94.7527 58.005C94.7709 58.0253 94.7847 58.0492 94.7934 58.0751C94.802 58.101 94.8052 58.1285 94.8028 58.1557C94.8004 58.1829 94.7925 58.2094 94.7795 58.2334V58.2718ZM66.0251 63.0592C65.976 62.966 65.9036 62.8872 65.8149 62.8306C65.7262 62.7741 65.6243 62.7416 65.5193 62.7365C65.6051 62.6825 65.6782 62.6106 65.7337 62.5257C65.7893 62.4409 65.8259 62.345 65.8412 62.2447C66.1324 62.5597 66.2167 62.3522 66.1324 62.2447C65.7339 61.6683 65.3661 60.07 65.0442 60.216C64.7453 60.1084 63.8256 60.4158 63.3198 60.3697C63.1206 60.3697 62.9673 60.239 63.1206 60.0239C63.6994 59.3914 64.4969 59.0039 65.3507 58.9404C66.485 59.1402 67.8874 61.0459 68.4852 61.9065C69.152 63.6893 68.0254 66.4173 67.5656 66.8706L65.9485 63.7124C66.02 63.6211 66.065 63.5119 66.0786 63.3966C66.0921 63.2813 66.0736 63.1646 66.0251 63.0592ZM62.7757 60.3236L52.8665 40.4826C52.8665 40.0215 53.196 40.4211 53.3416 40.6593C54.2 42.3883 63.3045 59.486 63.3045 59.486C63.1554 59.5723 63.0294 59.6937 62.9373 59.8395C62.8452 59.9854 62.7898 60.1515 62.7757 60.3236ZM63.0286 60.9691C63.4808 60.7308 64.776 60.3389 65.0978 60.9229C65.1361 61.1074 65.1745 61.2841 65.2051 61.4685C64.6978 61.3748 64.1744 61.426 63.6947 61.6162C63.215 61.8064 62.7983 62.128 62.4922 62.5443C62.0247 62.0064 62.4845 61.238 63.0286 60.9691ZM62.5688 63.0361C62.8524 62.2677 64.4924 61.361 65.2358 61.8143C65.9792 62.2677 65.0289 62.5828 64.8909 62.7749C64.4392 62.8056 64.006 62.9671 63.6442 63.24C63.2823 63.5128 63.0072 63.8851 62.8524 64.3117C62.6887 64.1484 62.575 63.9415 62.5248 63.7155C62.4746 63.4894 62.4898 63.2537 62.5688 63.0361ZM64.2625 63.2436C64.5844 63.1207 66.2014 62.7288 65.665 63.5894C64.8986 63.6586 64.2472 64.2426 64.6303 64.9957C64.9522 65.6258 65.2818 66.2559 65.619 66.8783C63.4501 66.6401 61.8484 64.1427 64.2625 63.2436ZM64.7989 64.4116C64.8761 64.2669 64.9853 64.1418 65.1182 64.0459C65.251 63.95 65.4039 63.8859 65.5653 63.8584C65.8489 64.4116 67.7725 68.0002 67.7725 68.2846C67.7725 68.5689 67.1441 68.8071 67.0061 68.5458C66.2295 67.1883 65.4887 65.8102 64.7836 64.4116H64.7989ZM67.6882 67.0704C68.8761 66.1944 69.2209 63.4818 68.8761 61.8374L70.1406 62.0218C70.3222 64.0419 69.8751 66.0687 68.8607 67.8235C68.6155 67.6698 67.7878 67.301 67.6729 67.0704H67.6882ZM108.835 79.9264C107.8 79.8649 106.758 80.08 105.639 79.4192C104.811 78.9274 103.961 77.8823 104.237 76.9064C104.543 77.3214 104.696 76.9602 104.581 76.8296C104.372 76.6006 104.229 76.3184 104.168 76.0135C104.107 75.7086 104.131 75.3928 104.237 75.1006C104.49 75.6154 104.735 75.3157 104.643 75.1544C104.267 74.4551 104.183 73.2025 105.08 72.8491C105.011 74.6165 106.942 74.8701 106.804 74.3859C106.804 74.3859 106.038 71.0279 106.904 71.1969C107.325 72.3342 107.9 74.8163 109.203 75.1621C108.906 76.7319 108.777 78.3291 108.82 79.9264H108.835Z" fill="black"/>
<path d="M31.6892 70.3235C37.5763 61.8611 45.0961 48.9753 50.0174 40.0284C50.2032 40.1436 50.4175 40.2041 50.6358 40.203C50.8542 40.2019 51.0679 40.1393 51.2525 40.0222C51.4371 39.9051 51.5852 39.7383 51.6799 39.5408C51.7746 39.3433 51.8121 39.123 51.7881 38.9052C57.7519 40.4438 63.9686 41.3439 69.9937 42.6902C70.1087 44.298 72.3623 43.6826 72.0174 42.367C77.0153 37.305 82.3965 31.9199 87.2794 26.9041L87.4634 26.981C87.7511 27.0764 88.0647 27.0539 88.3359 26.9185C88.6072 26.7831 88.8143 26.5457 88.9121 26.2579C89.012 25.9877 89.0045 25.6894 88.8913 25.4246C88.7782 25.1598 88.568 24.9488 88.3041 24.8352C88.0403 24.7216 87.7431 24.7141 87.4739 24.8142C87.2047 24.9143 86.9841 25.1144 86.8578 25.3732C86.7491 25.5786 86.7035 25.8117 86.7267 26.0431C86.7499 26.2744 86.8408 26.4937 86.9881 26.6733C82.0515 31.6968 76.563 36.8665 71.8794 42.0593C71.7556 41.8888 71.5852 41.7578 71.3888 41.6824C71.1264 41.5873 70.8373 41.5993 70.5836 41.7158C70.3299 41.8323 70.1319 42.044 70.032 42.3055C66.9658 41.6824 53.1679 38.6513 51.7268 38.5975C51.1672 36.9358 48.5609 38.3744 49.6878 39.7591C43.9157 50.2678 37.7373 59.9917 31.4286 70.1465C31.1781 70.0255 30.8943 69.9923 30.6228 70.0523C30.3513 70.1123 30.1077 70.262 29.931 70.4774C29.7543 70.6929 29.6548 70.9616 29.6484 71.2405C29.6419 71.5195 29.7289 71.7925 29.8955 72.0159C30.915 73.4699 33.069 71.5774 31.6892 70.3235ZM87.7853 19.6573C87.5017 19.6957 87.6013 20.0881 87.6167 20.2804C87.9386 23.5269 88.4752 19.588 87.7853 19.6573Z" fill="black"/>
<path d="M71.1282 34.5356C70.6606 34.4894 70.9749 36.3203 71.0209 36.7511C71.0236 36.7694 71.03 36.787 71.0397 36.8028C71.0493 36.8185 71.0621 36.8322 71.0771 36.843C71.0921 36.8537 71.1091 36.8613 71.1271 36.8654C71.1451 36.8694 71.1637 36.8698 71.1818 36.8665C71.2112 36.8632 71.2386 36.85 71.2595 36.829C71.2803 36.8081 71.2935 36.7806 71.2968 36.7511C71.2891 36.4203 71.5114 34.6048 71.1282 34.5356ZM71.2891 40.5053C71.5498 37.0819 70.8675 38.4282 70.8675 38.4744C70.8841 39.1518 70.943 39.8276 71.0439 40.4976C71.0428 40.5303 71.0548 40.562 71.0771 40.5858C71.0993 40.6096 71.1301 40.6236 71.1627 40.6246C71.1952 40.6256 71.2268 40.6136 71.2505 40.5912C71.2742 40.5689 71.2881 40.538 71.2891 40.5053ZM71.0515 27.2734C70.7679 27.3118 70.8675 27.7042 70.8905 27.8965C71.2355 31.1429 71.7414 27.2041 71.0515 27.2734ZM87.6397 22.7191C87.4404 24.6039 88.1532 24.7731 88.0613 23.3807C88.0613 23.0807 87.9693 22.7806 87.9309 22.4806C87.9309 22.3498 87.6857 22.2421 87.6397 22.7191ZM80.1581 23.6422C81.5839 23.7884 84.6348 23.6961 84.8188 23.6884C85.9686 23.6884 85.8536 23.6884 85.7693 22.5806C85.7693 21.9959 85.6926 21.3574 85.4243 21.4344L79.6675 21.3113C79.2153 21.1882 79.3839 21.9421 79.4069 22.4268C79.4529 23.3038 79.1463 23.5345 80.1581 23.6422ZM79.7825 21.6344L85.4013 21.8036L85.4473 23.2807H79.7749L79.7825 21.6344ZM70.9749 21.7728C70.9855 21.8072 71.0091 21.8361 71.0405 21.8533C71.072 21.8705 71.1089 21.8748 71.1435 21.8652C71.1661 21.8585 71.1868 21.8467 71.2041 21.8307C71.2213 21.8147 71.2347 21.7949 71.2432 21.7728C71.3603 21.1046 71.3759 20.4225 71.2891 19.7496C71.2793 19.7263 71.2647 19.7052 71.2464 19.6878C71.2281 19.6703 71.2064 19.6569 71.1827 19.6482C71.1589 19.6396 71.1337 19.6359 71.1085 19.6374C71.0833 19.639 71.0587 19.6458 71.0362 19.6573C71.0084 19.6716 70.9846 19.6927 70.9672 19.7188C70.8558 20.3912 70.8558 21.0774 70.9672 21.7498L70.9749 21.7728ZM71.1205 23.5192C70.7449 23.5192 70.8905 24.25 70.9059 24.4577C71.0439 27.281 71.8411 23.5345 71.1205 23.5192ZM40.4278 37.7282C40.4278 37.8436 40.6348 37.8589 40.9491 37.8589C42.2906 37.8589 47.1352 38.2436 47.2195 37.7051C47.4954 37.7051 47.3958 36.0357 47.3575 35.7126C47.7024 34.8894 41.1484 35.4972 40.6731 35.4587C40.4585 35.3972 40.3589 35.6357 40.3972 35.9895C40.4585 36.5896 40.3972 37.4512 40.4278 37.7282ZM40.7575 35.7895C42.8271 35.7895 45.0271 35.8434 47.0892 35.7895V37.5666C44.9275 37.6512 42.8348 37.5666 40.7268 37.6281C40.768 37.0162 40.7782 36.4025 40.7575 35.7895ZM30.4704 21.9267C30.3554 27.9503 30.4014 59.4455 30.4167 69.1695C30.4167 69.4772 30.8996 69.5157 30.8996 69.1695C30.8996 62.9228 30.9686 31.3968 30.7693 21.8805C30.9993 21.8805 31.8042 21.8421 31.9651 21.5805C32.1261 21.319 30.9993 18.3264 30.8306 17.8802C30.7693 17.7263 30.57 17.834 30.5393 17.9417C30.1714 19.1649 29.7728 20.365 29.4508 21.6036C29.3589 21.9806 30.2327 21.9344 30.4704 21.9267ZM71.3428 32.2969V31.4507C71.3428 30.9045 70.6836 30.4583 70.9672 32.5508C71.0439 33.0662 71.2891 33.0662 71.3428 32.2969ZM50.3317 36.4588C50.3777 36.7742 50.8223 36.7435 50.7993 36.1742C50.7303 34.374 50.324 34.3432 50.3163 35.2433C50.2857 35.6479 50.2857 36.0542 50.3163 36.4588H50.3317ZM50.5923 22.0498C51.0139 22.0113 50.6843 20.0958 50.5923 19.7419C50.5923 19.6111 50.3547 19.5803 50.347 19.7419C50.347 20.4343 50.3317 21.1266 50.301 21.819C50.2997 21.8553 50.3069 21.8913 50.3221 21.9243C50.3373 21.9572 50.36 21.9861 50.3883 22.0085C50.4167 22.031 50.45 22.0465 50.4854 22.0536C50.5208 22.0608 50.5575 22.0595 50.5923 22.0498ZM50.324 27.9119V28.7735C50.324 29.3197 50.9832 29.7505 50.6996 27.6734C50.5923 27.1426 50.3547 27.1887 50.324 27.9119ZM50.5386 25.7194C51.0139 25.7655 50.6919 23.9346 50.646 23.4961C50.646 23.4594 50.6314 23.4241 50.6055 23.3982C50.5797 23.3722 50.5446 23.3576 50.508 23.3576C50.4714 23.3576 50.4363 23.3722 50.4104 23.3982C50.3845 23.4241 50.37 23.4594 50.37 23.4961C50.37 23.8346 50.1554 25.6809 50.5386 25.7194Z" fill="black"/>
</svg>
