<svg width="833" height="832" viewBox="0 0 833 832" fill="none" xmlns="http://www.w3.org/2000/svg">
<g filter="url(#filter0_f_103_43)">
<path d="M578.288 708.437C574.085 739.596 543.538 763.936 513.181 755.532C469.928 743.638 419.847 725.086 374.784 721.629C368.843 721.173 305.72 716.396 305.72 716.396C294.554 715.602 284.074 710.732 276.275 702.717L157.27 580.398C144.265 567.032 140.745 547.099 148.387 530.1C148.387 530.1 221.973 368.682 224.706 360.288C227.439 351.893 237.469 278.68 243.412 239.349C244.988 228.926 250.143 219.372 257.995 212.322L398.774 85.9217C418.36 68.3369 448.762 70.9428 465.056 91.603L583.317 241.549C590.008 250.036 593.438 260.582 593.488 271.38C593.623 299.788 595.971 358.113 611.708 395.679C627.016 432.22 655.111 471.683 669.795 491.102C675.429 498.555 676.293 508.632 671.532 516.671C661.169 534.183 640.694 567.808 611.708 610.949C591.724 640.695 582.463 677.466 578.288 708.437Z" fill="#BF9FFF" fill-opacity="0.73"/>
</g>
<path d="M574.074 702.232C569.86 733.532 539.228 757.983 508.788 749.541C465.414 737.592 415.195 718.956 370.008 715.483C364.05 715.026 300.752 710.227 300.752 710.227C289.555 709.429 279.046 704.537 271.226 696.485L151.892 573.611C138.85 560.184 135.32 540.16 142.983 523.084C142.983 523.084 216.773 360.933 219.513 352.5C222.254 344.068 232.312 270.522 238.272 231.013C239.852 220.542 245.021 210.944 252.895 203.862L394.063 76.8878C413.704 59.2231 444.19 61.8408 460.529 82.595L579.117 233.222C585.827 241.747 589.266 252.341 589.316 263.188C589.452 291.726 591.807 350.316 607.586 388.053C622.937 424.759 651.11 464.402 665.835 483.909C671.484 491.396 672.35 501.519 667.576 509.594C657.185 527.186 636.654 560.963 607.586 604.301C587.547 634.182 578.261 671.12 574.074 702.232Z" fill="#6C31E3"/>
<path d="M284.085 705.773C339.503 593.265 337.957 512.663 314.376 455.14C292.673 402.206 252.307 368.818 220.491 348.097C219.821 351.09 218.85 354.013 217.592 356.819L142.981 523.084C135.318 540.161 138.848 560.185 151.89 573.611L271.224 696.486C274.968 700.34 279.328 703.47 284.085 705.773Z" fill="url(#paint0_radial_103_43)"/>
<path d="M508.802 749.525C539.237 757.966 569.864 733.516 574.077 702.216C577.706 675.269 585.155 643.949 600.105 616.632C565.804 542.797 524.325 504.508 478.853 487.537C430.721 469.573 378.115 475.496 324.814 488.44C336.729 542.665 329.597 613.483 284.147 705.763C289.322 708.269 294.966 709.795 300.796 710.21C300.796 710.21 333.593 712.972 372.596 715.732C411.599 718.493 469.641 738.665 508.802 749.525Z" fill="url(#paint1_radial_103_43)"/>
<path d="M434.899 477.416C449.875 478.981 464.553 482.208 478.838 487.538C524.318 504.51 565.807 542.801 600.113 616.63C602.42 612.416 604.907 608.295 607.587 604.301C636.652 560.963 657.184 527.186 667.575 509.594C672.349 501.519 671.483 491.396 665.832 483.908C651.109 464.402 622.936 424.759 607.587 388.053C591.806 350.316 589.451 291.726 589.317 263.188C589.265 252.341 585.826 241.747 579.116 233.222L460.528 82.5946C459.895 81.7892 459.238 81.0112 458.563 80.2606C467.264 108.776 466.675 131.716 461.307 152.569C456.33 171.901 447.245 189.44 437.65 207.966L437.648 207.969C434.429 214.182 431.154 220.507 427.955 227.049C415.224 253.092 403.728 282.562 402.033 322.081C400.337 361.602 408.438 411.17 434.903 477.415L434.899 477.416Z" fill="url(#paint2_radial_103_43)"/>
<path d="M434.883 477.415C408.42 411.172 400.315 361.602 402.012 322.08C403.709 282.558 415.204 253.087 427.937 227.042C431.136 220.499 434.412 214.175 437.631 207.96C447.225 189.433 456.31 171.896 461.287 152.566C466.655 131.708 467.245 108.762 458.535 80.2342C441.805 61.6665 412.926 59.9167 394.057 76.8878L252.889 203.862C245.015 210.944 239.846 220.542 238.266 231.013L221.081 344.931C220.921 345.988 220.724 347.038 220.491 348.082C252.309 368.803 292.68 402.194 314.385 455.135C318.624 465.476 322.152 476.559 324.765 488.443C362.25 479.339 399.394 473.71 434.883 477.415Z" fill="url(#paint3_radial_103_43)"/>
<path fill-rule="evenodd" clip-rule="evenodd" d="M402.289 319.477C400.587 358.681 405.481 403.653 431.888 469.759L423.596 469.01C399.904 400.027 394.748 364.659 396.473 324.912C398.2 285.147 411.048 254.569 423.853 228.485C427.096 221.879 434.663 209.474 437.901 203.248C447.488 184.811 453.869 175.073 459.348 158.221C467.004 134.675 465.347 123.523 464.475 112.425C470.553 152.545 447.481 187.432 430.038 222.964C417.331 248.848 403.989 280.291 402.289 319.477Z" fill="url(#paint4_radial_103_43)"/>
<path fill-rule="evenodd" clip-rule="evenodd" d="M322.183 458.055C325.316 465.298 328.274 471.146 330.142 480.107L323.222 481.662C320.343 471.199 318.118 463.755 314.133 454.779C290.287 398.521 252.018 369.583 220.743 348.358C258.519 368.682 297.291 400.492 322.183 458.055Z" fill="url(#paint5_radial_103_43)"/>
<path fill-rule="evenodd" clip-rule="evenodd" d="M330.544 487.185C343.757 548.675 329.016 626.792 285.576 702.728C321.886 627.472 339.488 555.193 324.829 488.411L330.544 487.185Z" fill="url(#paint6_radial_103_43)"/>
<path fill-rule="evenodd" clip-rule="evenodd" d="M480.478 481.654C551.702 508.308 579.127 566.832 599.625 615.651C574.309 564.53 539.112 508.074 477.923 487.119C431.364 471.173 392.044 473.064 324.824 488.32L323.326 481.654C394.666 465.4 431.965 463.499 480.478 481.654Z" fill="url(#paint7_radial_103_43)"/>
<defs>
<filter id="filter0_f_103_43" x="126.393" y="56.2524" width="566.23" height="718.957" filterUnits="userSpaceOnUse" color-interpolation-filters="sRGB">
<feFlood flood-opacity="0" result="BackgroundImageFix"/>
<feBlend mode="normal" in="SourceGraphic" in2="BackgroundImageFix" result="shape"/>
<feGaussianBlur stdDeviation="9" result="effect1_foregroundBlur_103_43"/>
</filter>
<radialGradient id="paint0_radial_103_43" cx="0" cy="0" r="1" gradientUnits="userSpaceOnUse" gradientTransform="translate(278.124 694.667) rotate(-104.574) scale(312.164 208.025)">
<stop stop-color="white" stop-opacity="0.4"/>
<stop offset="1" stop-opacity="0.1"/>
</radialGradient>
<radialGradient id="paint1_radial_103_43" cx="0" cy="0" r="1" gradientUnits="userSpaceOnUse" gradientTransform="translate(511.19 751.209) rotate(-120.588) scale(253.721 291.323)">
<stop stop-color="white" stop-opacity="0.3"/>
<stop offset="1" stop-opacity="0.25"/>
</radialGradient>
<radialGradient id="paint2_radial_103_43" cx="0" cy="0" r="1" gradientUnits="userSpaceOnUse" gradientTransform="translate(544.182 566.311) rotate(-82.4846) scale(512.246 378.451)">
<stop stop-color="white" stop-opacity="0.55"/>
<stop offset="1" stop-color="white" stop-opacity="0.05"/>
</radialGradient>
<radialGradient id="paint3_radial_103_43" cx="0" cy="0" r="1" gradientUnits="userSpaceOnUse" gradientTransform="translate(296.83 476.378) rotate(-77.7214) scale(437.431 298.317)">
<stop stop-color="white" stop-opacity="0.83"/>
<stop offset="1" stop-color="white" stop-opacity="0.4"/>
</radialGradient>
<radialGradient id="paint4_radial_103_43" cx="0" cy="0" r="1" gradientUnits="userSpaceOnUse" gradientTransform="translate(477.182 236.681) rotate(102.236) scale(227.604 153.482)">
<stop stop-color="white" stop-opacity="0"/>
<stop offset="1" stop-color="white" stop-opacity="0.17"/>
</radialGradient>
<radialGradient id="paint5_radial_103_43" cx="0" cy="0" r="1" gradientUnits="userSpaceOnUse" gradientTransform="translate(210.528 359.957) rotate(45.3237) scale(167.71 357.205)">
<stop stop-color="white" stop-opacity="0.2"/>
<stop offset="1" stop-color="white" stop-opacity="0.44"/>
</radialGradient>
<radialGradient id="paint6_radial_103_43" cx="0" cy="0" r="1" gradientUnits="userSpaceOnUse" gradientTransform="translate(337.144 439.314) rotate(80.2016) scale(196.566 417.419)">
<stop stop-color="white" stop-opacity="0.12"/>
<stop offset="1" stop-color="white" stop-opacity="0.35"/>
</radialGradient>
<radialGradient id="paint7_radial_103_43" cx="0" cy="0" r="1" gradientUnits="userSpaceOnUse" gradientTransform="translate(597.78 599.809) rotate(-152.297) scale(299.519 942.568)">
<stop stop-color="white" stop-opacity="0.21"/>
<stop offset="0.46738" stop-color="white" stop-opacity="0.19"/>
<stop offset="1" stop-color="white" stop-opacity="0.29"/>
</radialGradient>
</defs>
</svg>
